<svg width="2415" height="1339" xmlns="http://www.w3.org/2000/svg" xmlns:xlink="http://www.w3.org/1999/xlink" xml:space="preserve" overflow="hidden"><g transform="translate(-183 -210)"><g><g><g><g><path d="M378.844 355.459 70.1563 355.459C59.8667 355.459 51.4479 347.04 51.4479 336.75L51.4479 112.25C51.4479 101.96 59.8667 93.5417 70.1563 93.5417L158.086 93.5417C161.827 93.5417 165.569 94.4771 168.375 96.8157L219.823 130.958 378.844 130.958C389.134 130.958 397.552 139.377 397.552 149.667L397.552 336.75C397.552 347.04 389.134 355.459 378.844 355.459Z" stroke="#3465A4" stroke-width="10.9132" stroke-linecap="butt" stroke-linejoin="miter" stroke-miterlimit="4" stroke-opacity="1" fill="#E1EEFD" fill-rule="nonzero" fill-opacity="1" transform="matrix(1 0 0 1.02895 1767 707)"/></g></g></g><g><g><g><path d="M361.969 339.625 67.0312 339.625C57.2 339.625 49.1562 331.581 49.1562 321.75L49.1562 107.25C49.1562 97.4187 57.2 89.375 67.0312 89.375L151.044 89.375C154.619 89.375 158.194 90.2688 160.875 92.5031L210.031 125.125 361.969 125.125C371.8 125.125 379.844 133.169 379.844 143L379.844 321.75C379.844 331.581 371.8 339.625 361.969 339.625Z" stroke="#3465A4" stroke-width="10.4271" stroke-linecap="butt" stroke-linejoin="miter" stroke-miterlimit="4" stroke-opacity="1" fill="#E1EEFD" fill-rule="nonzero" fill-opacity="1" transform="matrix(1 0 0 1.07692 1385 699)"/></g></g></g><g><g><g><path d="M361.969 339.625 67.0312 339.625C57.2 339.625 49.1562 331.581 49.1562 321.75L49.1562 107.25C49.1562 97.4187 57.2 89.375 67.0312 89.375L151.044 89.375C154.619 89.375 158.194 90.2688 160.875 92.5031L210.031 125.125 361.969 125.125C371.8 125.125 379.844 133.169 379.844 143L379.844 321.75C379.844 331.581 371.8 339.625 361.969 339.625Z" stroke="#3465A4" stroke-width="10.4271" stroke-linecap="butt" stroke-linejoin="miter" stroke-miterlimit="4" stroke-opacity="1" fill="#E1EEFD" fill-rule="nonzero" fill-opacity="1" transform="matrix(1 0 0 1.07692 291 699)"/></g></g></g><g><g><g><path d="M388.969 364.958 72.0312 364.958C61.4667 364.958 52.8229 356.315 52.8229 345.75L52.8229 115.25C52.8229 104.685 61.4667 96.0417 72.0312 96.0417L162.31 96.0417C166.152 96.0417 169.994 97.0021 172.875 99.4031L225.698 134.458 388.969 134.458C399.533 134.458 408.177 143.102 408.177 153.667L408.177 345.75C408.177 356.315 399.533 364.958 388.969 364.958Z" stroke="#3465A4" stroke-width="11.2048" stroke-linecap="butt" stroke-linejoin="miter" stroke-miterlimit="4" stroke-opacity="1" fill="#E1EEFD" fill-rule="nonzero" fill-opacity="1" transform="matrix(1.18221 0 0 1 1274 211)"/></g></g></g><text fill="#000000" fill-opacity="1" font-family="Arial,Arial_MSFontService,sans-serif" font-style="normal" font-variant="normal" font-weight="700" font-stretch="normal" font-size="78" text-anchor="start" direction="ltr" writing-mode="lr-tb" unicode-bidi="normal" text-decoration="none" transform="matrix(1 0 0 1 1394.46 485)">project1</text><path d="M0 0 0.000360892 80.9998" stroke="#3465A4" stroke-width="6.88583" stroke-linecap="butt" stroke-linejoin="round" stroke-miterlimit="10" stroke-opacity="1" fill="none" fill-rule="evenodd" transform="matrix(-1 0 0 1 1528.5 603.5)"/><text fill="#000000" fill-opacity="1" font-family="Arial,Arial_MSFontService,sans-serif" font-style="normal" font-variant="normal" font-weight="700" font-stretch="normal" font-size="78" text-anchor="start" direction="ltr" writing-mode="lr-tb" unicode-bidi="normal" text-decoration="none" transform="matrix(1 0 0 1 408.21 973)">data</text><text fill="#000000" fill-opacity="1" font-family="Arial,Arial_MSFontService,sans-serif" font-style="normal" font-variant="normal" font-weight="700" font-stretch="normal" font-size="78" text-anchor="start" direction="ltr" writing-mode="lr-tb" unicode-bidi="normal" text-decoration="none" transform="matrix(1 0 0 1 1854.15 975)">scripts</text><text fill="#000000" fill-opacity="1" font-family="Arial,Arial_MSFontService,sans-serif" font-style="normal" font-variant="normal" font-weight="700" font-stretch="normal" font-size="78" text-anchor="start" direction="ltr" writing-mode="lr-tb" unicode-bidi="normal" text-decoration="none" transform="matrix(1 0 0 1 1472.97 971)">results</text><g><g><g><path d="M361.969 339.625 67.0312 339.625C57.2 339.625 49.1562 331.581 49.1562 321.75L49.1562 107.25C49.1562 97.4187 57.2 89.375 67.0312 89.375L151.044 89.375C154.619 89.375 158.194 90.2688 160.875 92.5031L210.031 125.125 361.969 125.125C371.8 125.125 379.844 133.169 379.844 143L379.844 321.75C379.844 331.581 371.8 339.625 361.969 339.625Z" stroke="#3465A4" stroke-width="10.4271" stroke-linecap="butt" stroke-linejoin="miter" stroke-miterlimit="4" stroke-opacity="1" fill="#E1EEFD" fill-rule="nonzero" fill-opacity="1" transform="matrix(1 0 0 1.07692 186 1078)"/></g></g></g><g><g><g><path d="M2323.31 960.375 2323.31 811.625 2378 811.625 2378 857.562 2432.69 857.562 2432.69 960.375 2323.31 960.375ZM2391.12 817.094 2418.47 844.438 2391.12 844.438 2391.12 817.094ZM2391.12 798.5 2310.19 798.5 2310.19 973.5 2445.81 973.5 2445.81 846.625 2391.12 798.5Z" fill="#7F7F7F" fill-rule="nonzero" fill-opacity="1"/><path d="M2336.44 879.438 2419.56 879.438 2419.56 888.188 2336.44 888.188Z" fill="#7F7F7F" fill-rule="nonzero" fill-opacity="1"/><path d="M2336.44 861.938 2364.87 861.938 2364.87 870.688 2336.44 870.688Z" fill="#7F7F7F" fill-rule="nonzero" fill-opacity="1"/><path d="M2336.44 896.938 2419.56 896.938 2419.56 905.688 2336.44 905.688Z" fill="#7F7F7F" fill-rule="nonzero" fill-opacity="1"/><path d="M2336.44 914.438 2419.56 914.438 2419.56 923.188 2336.44 923.188Z" fill="#7F7F7F" fill-rule="nonzero" fill-opacity="1"/><path d="M2336.44 931.938 2419.56 931.938 2419.56 940.688 2336.44 940.688Z" fill="#7F7F7F" fill-rule="nonzero" fill-opacity="1"/></g></g></g><g><g><g><path d="M361.969 339.625 67.0312 339.625C57.2 339.625 49.1562 331.581 49.1562 321.75L49.1562 107.25C49.1562 97.4187 57.2 89.375 67.0312 89.375L151.044 89.375C154.619 89.375 158.194 90.2688 160.875 92.5031L210.031 125.125 361.969 125.125C371.8 125.125 379.844 133.169 379.844 143L379.844 321.75C379.844 331.581 371.8 339.625 361.969 339.625Z" stroke="#3465A4" stroke-width="10.4271" stroke-linecap="butt" stroke-linejoin="miter" stroke-miterlimit="4" stroke-opacity="1" fill="#E1EEFD" fill-rule="nonzero" fill-opacity="1" transform="matrix(1 0 0 1.07692 652 698)"/></g></g></g><text fill="#000000" fill-opacity="1" font-family="Arial,Arial_MSFontService,sans-serif" font-style="normal" font-variant="normal" font-weight="700" font-stretch="normal" font-size="78" text-anchor="start" direction="ltr" writing-mode="lr-tb" unicode-bidi="normal" text-decoration="none" transform="matrix(1 0 0 1 781.101 973)">doc</text><g><g><g><path d="M361.969 339.625 67.0312 339.625C57.2 339.625 49.1562 331.581 49.1562 321.75L49.1562 107.25C49.1562 97.4187 57.2 89.375 67.0312 89.375L151.044 89.375C154.619 89.375 158.194 90.2688 160.875 92.5031L210.031 125.125 361.969 125.125C371.8 125.125 379.844 133.169 379.844 143L379.844 321.75C379.844 331.581 371.8 339.625 361.969 339.625Z" stroke="#3465A4" stroke-width="10.4271" stroke-linecap="butt" stroke-linejoin="miter" stroke-miterlimit="4" stroke-opacity="1" fill="#E1EEFD" fill-rule="nonzero" fill-opacity="1" transform="matrix(1 0 0 1.07692 1017 696)"/></g></g></g><text fill="#000000" fill-opacity="1" font-family="Arial,Arial_MSFontService,sans-serif" font-style="normal" font-variant="normal" font-weight="700" font-stretch="normal" font-size="78" text-anchor="start" direction="ltr" writing-mode="lr-tb" unicode-bidi="normal" text-decoration="none" transform="matrix(1 0 0 1 1125.48 931)">manu</text><text fill="#000000" fill-opacity="1" font-family="Arial,Arial_MSFontService,sans-serif" font-style="normal" font-variant="normal" font-weight="700" font-stretch="normal" font-size="78" text-anchor="start" direction="ltr" writing-mode="lr-tb" unicode-bidi="normal" text-decoration="none" transform="matrix(1 0 0 1 1333.29 931)">-</text><text fill="#000000" fill-opacity="1" font-family="Arial,Arial_MSFontService,sans-serif" font-style="normal" font-variant="normal" font-weight="700" font-stretch="normal" font-size="78" text-anchor="start" direction="ltr" writing-mode="lr-tb" unicode-bidi="normal" text-decoration="none" transform="matrix(1 0 0 1 1125.48 1021)">script</text><path d="M0 0 1859 0.000360892" stroke="#3465A4" stroke-width="6.88583" stroke-linecap="butt" stroke-linejoin="round" stroke-miterlimit="10" stroke-opacity="1" fill="none" fill-rule="evenodd" transform="matrix(-1 0 0 1 2370.5 681.5)"/><path d="M0 0 0.000360892 82.0002" stroke="#3465A4" stroke-width="6.88583" stroke-linecap="butt" stroke-linejoin="round" stroke-miterlimit="10" stroke-opacity="1" fill="none" fill-rule="evenodd" transform="matrix(-1 0 0 1 513.5 684.5)"/><text fill="#000000" fill-opacity="1" font-family="Arial,Arial_MSFontService,sans-serif" font-style="normal" font-variant="normal" font-weight="700" font-stretch="normal" font-size="78" text-anchor="start" direction="ltr" writing-mode="lr-tb" unicode-bidi="normal" text-decoration="none" transform="matrix(1 0 0 1 2214.24 1056)">README</text><path d="M0 0 0.000360892 82.0002" stroke="#3465A4" stroke-width="6.88583" stroke-linecap="butt" stroke-linejoin="round" stroke-miterlimit="10" stroke-opacity="1" fill="none" fill-rule="evenodd" transform="matrix(-1 0 0 1 875.5 686.5)"/><path d="M0 0 0.000360892 80.9998" stroke="#3465A4" stroke-width="6.88583" stroke-linecap="butt" stroke-linejoin="round" stroke-miterlimit="10" stroke-opacity="1" fill="none" fill-rule="evenodd" transform="matrix(-1 0 0 1 1230.5 689.5)"/><path d="M0 0 0.000360892 82.0002" stroke="#3465A4" stroke-width="6.88583" stroke-linecap="butt" stroke-linejoin="round" stroke-miterlimit="10" stroke-opacity="1" fill="none" fill-rule="evenodd" transform="matrix(-1 0 0 1 1608.5 684.5)"/><path d="M0 0 0.000360892 82.0002" stroke="#3465A4" stroke-width="6.88583" stroke-linecap="butt" stroke-linejoin="round" stroke-miterlimit="10" stroke-opacity="1" fill="none" fill-rule="evenodd" transform="matrix(-1 0 0 1 1984.5 684.5)"/><path d="M0 0 0.000360892 81.9998" stroke="#3465A4" stroke-width="6.88583" stroke-linecap="butt" stroke-linejoin="round" stroke-miterlimit="10" stroke-opacity="1" fill="none" fill-rule="evenodd" transform="matrix(-1 0 0 1 2366.5 681.5)"/><path d="M0 0 62.9999 81.9998" stroke="#3465A4" stroke-width="6.88583" stroke-linecap="butt" stroke-linejoin="round" stroke-miterlimit="10" stroke-opacity="1" fill="none" fill-rule="evenodd" transform="matrix(-1 0 0 1 506.5 1084.5)"/><text fill="#000000" fill-opacity="1" font-family="Arial,Arial_MSFontService,sans-serif" font-style="normal" font-variant="normal" font-weight="700" font-stretch="normal" font-size="78" text-anchor="start" direction="ltr" writing-mode="lr-tb" unicode-bidi="normal" text-decoration="none" transform="matrix(1 0 0 1 301.482 1352)">meta</text><g><g><g><path d="M361.969 339.625 67.0312 339.625C57.2 339.625 49.1562 331.581 49.1562 321.75L49.1562 107.25C49.1562 97.4187 57.2 89.375 67.0312 89.375L151.044 89.375C154.619 89.375 158.194 90.2688 160.875 92.5031L210.031 125.125 361.969 125.125C371.8 125.125 379.844 133.169 379.844 143L379.844 321.75C379.844 331.581 371.8 339.625 361.969 339.625Z" stroke="#3465A4" stroke-width="10.4271" stroke-linecap="butt" stroke-linejoin="miter" stroke-miterlimit="4" stroke-opacity="1" fill="#E1EEFD" fill-rule="nonzero" fill-opacity="1" transform="matrix(1 0 0 1.07692 560 1078)"/></g></g></g><path d="M609.5 1090.5 671.5 1157.5" stroke="#3465A4" stroke-width="6.88583" stroke-linecap="butt" stroke-linejoin="round" stroke-miterlimit="10" stroke-opacity="1" fill="none" fill-rule="evenodd"/><text fill="#000000" fill-opacity="1" font-family="Arial,Arial_MSFontService,sans-serif" font-style="normal" font-variant="normal" font-weight="700" font-stretch="normal" font-size="78" text-anchor="start" direction="ltr" writing-mode="lr-tb" unicode-bidi="normal" text-decoration="none" transform="matrix(1 0 0 1 675.185 1352)">raw</text><g><g><g><path d="M361.969 339.625 67.0312 339.625C57.2 339.625 49.1562 331.581 49.1562 321.75L49.1562 107.25C49.1562 97.4187 57.2 89.375 67.0312 89.375L151.044 89.375C154.619 89.375 158.194 90.2688 160.875 92.5031L210.031 125.125 361.969 125.125C371.8 125.125 379.844 133.169 379.844 143L379.844 321.75C379.844 331.581 371.8 339.625 361.969 339.625Z" stroke="#3465A4" stroke-width="10.4271" stroke-linecap="butt" stroke-linejoin="miter" stroke-miterlimit="4" stroke-opacity="1" fill="#E1EEFD" fill-rule="nonzero" fill-opacity="1" transform="matrix(1 0 0 1.07459 1188 1084)"/></g></g></g><path d="M0 0 78.9997 70.9998" stroke="#3465A4" stroke-width="6.88583" stroke-linecap="butt" stroke-linejoin="round" stroke-miterlimit="10" stroke-opacity="1" fill="none" fill-rule="evenodd" transform="matrix(-1 0 0 1 1562.5 1095.5)"/><text fill="#000000" fill-opacity="1" font-family="Arial,Arial_MSFontService,sans-serif" font-style="normal" font-variant="normal" font-weight="700" font-stretch="normal" font-size="78" text-anchor="start" direction="ltr" writing-mode="lr-tb" unicode-bidi="normal" text-decoration="none" transform="matrix(1 0 0 1 1303.51 1358)">tool1</text><g><g><g><path d="M361.969 339.625 67.0312 339.625C57.2 339.625 49.1562 331.581 49.1562 321.75L49.1562 107.25C49.1562 97.4187 57.2 89.375 67.0312 89.375L151.044 89.375C154.619 89.375 158.194 90.2688 160.875 92.5031L210.031 125.125 361.969 125.125C371.8 125.125 379.844 133.169 379.844 143L379.844 321.75C379.844 331.581 371.8 339.625 361.969 339.625Z" stroke="#3465A4" stroke-width="10.4271" stroke-linecap="butt" stroke-linejoin="miter" stroke-miterlimit="4" stroke-opacity="1" fill="#E1EEFD" fill-rule="nonzero" fill-opacity="1" transform="matrix(1 0 0 1.07459 1562 1084)"/></g></g></g><path d="M1611.5 1095.5 1673.5 1163.5" stroke="#3465A4" stroke-width="6.88583" stroke-linecap="butt" stroke-linejoin="round" stroke-miterlimit="10" stroke-opacity="1" fill="none" fill-rule="evenodd"/><text fill="#000000" fill-opacity="1" font-family="Arial,Arial_MSFontService,sans-serif" font-style="normal" font-variant="normal" font-weight="700" font-stretch="normal" font-size="78" text-anchor="start" direction="ltr" writing-mode="lr-tb" unicode-bidi="normal" text-decoration="none" transform="matrix(1 0 0 1 1677.21 1358)">tool2</text><g><g><g><path d="M361.969 339.625 67.0312 339.625C57.2 339.625 49.1562 331.581 49.1562 321.75L49.1562 107.25C49.1562 97.4187 57.2 89.375 67.0312 89.375L151.044 89.375C154.619 89.375 158.194 90.2688 160.875 92.5031L210.031 125.125 361.969 125.125C371.8 125.125 379.844 133.169 379.844 143L379.844 321.75C379.844 331.581 371.8 339.625 361.969 339.625Z" stroke="#3465A4" stroke-width="10.4271" stroke-linecap="butt" stroke-linejoin="miter" stroke-miterlimit="4" stroke-opacity="1" fill="#E1EEFD" fill-rule="nonzero" fill-opacity="1" transform="matrix(1 0 0 1.07459 1930 1085)"/></g></g></g><text fill="#000000" fill-opacity="1" font-family="Arial,Arial_MSFontService,sans-serif" font-style="normal" font-variant="normal" font-weight="700" font-stretch="normal" font-size="78" text-anchor="start" direction="ltr" writing-mode="lr-tb" unicode-bidi="normal" text-decoration="none" transform="matrix(1 0 0 1 2093.9 1358)">…</text></g></g></svg>