<svg width="2452" height="1504" xmlns="http://www.w3.org/2000/svg" xmlns:xlink="http://www.w3.org/1999/xlink" xml:space="preserve" overflow="hidden"><g transform="translate(-4 -22)"><g><path d="M1338.5 455.5 1660.5 662.5" stroke="#808080" stroke-width="6.88583" stroke-linecap="butt" stroke-linejoin="round" stroke-miterlimit="10" stroke-opacity="1" fill="none" fill-rule="evenodd"/><path d="M0 0 363 231" stroke="#808080" stroke-width="6.88583" stroke-linecap="butt" stroke-linejoin="round" stroke-miterlimit="10" stroke-opacity="1" fill="none" fill-rule="evenodd" transform="matrix(-1 0 0 1 934.5 455.5)"/><g><g><g><path d="M378 354.667 70 354.667C59.7333 354.667 51.3333 346.267 51.3333 336L51.3333 112C51.3333 101.733 59.7333 93.3333 70 93.3333L157.733 93.3333C161.467 93.3333 165.2 94.2666 168 96.6L219.333 130.667 378 130.667C388.267 130.667 396.667 139.067 396.667 149.333L396.667 336C396.667 346.267 388.267 354.667 378 354.667Z" stroke="#3465A4" stroke-width="10.8889" stroke-linecap="butt" stroke-linejoin="miter" stroke-miterlimit="4" stroke-opacity="1" fill="#E1EEFD" fill-rule="nonzero" fill-opacity="1" transform="matrix(1 0 0 1.03125 780 1048)"/></g></g></g><g><g><g><path d="M361.125 338.833 66.875 338.833C57.0667 338.833 49.0417 330.808 49.0417 321L49.0417 107C49.0417 97.1917 57.0667 89.1667 66.875 89.1667L150.692 89.1667C154.258 89.1667 157.825 90.0583 160.5 92.2875L209.542 124.833 361.125 124.833C370.933 124.833 378.958 132.858 378.958 142.667L378.958 321C378.958 330.808 370.933 338.833 361.125 338.833Z" stroke="#3465A4" stroke-width="10.4028" stroke-linecap="butt" stroke-linejoin="miter" stroke-miterlimit="4" stroke-opacity="1" fill="#E1EEFD" fill-rule="nonzero" fill-opacity="1" transform="matrix(1 0 0 1.07944 398 1040)"/></g></g></g><g><g><g><path d="M361.969 339.625 67.0312 339.625C57.2 339.625 49.1562 331.581 49.1562 321.75L49.1562 107.25C49.1562 97.4187 57.2 89.375 67.0312 89.375L151.044 89.375C154.619 89.375 158.194 90.2688 160.875 92.5031L210.031 125.125 361.969 125.125C371.8 125.125 379.844 133.169 379.844 143L379.844 321.75C379.844 331.581 371.8 339.625 361.969 339.625Z" stroke="#3465A4" stroke-width="10.4271" stroke-linecap="butt" stroke-linejoin="miter" stroke-miterlimit="4" stroke-opacity="1" fill="#E1EEFD" fill-rule="nonzero" fill-opacity="1" transform="matrix(1 0 0 1.07692 5.00016 1034)"/></g></g></g><g><g><g><path d="M389.812 365.75 72.1875 365.75C61.6 365.75 52.9375 357.087 52.9375 346.5L52.9375 115.5C52.9375 104.912 61.6 96.25 72.1875 96.25L162.662 96.25C166.512 96.25 170.363 97.2125 173.25 99.6188L226.188 134.75 389.812 134.75C400.4 134.75 409.062 143.412 409.062 154L409.062 346.5C409.062 357.087 400.4 365.75 389.812 365.75Z" stroke="#3465A4" stroke-width="11.2292" stroke-linecap="butt" stroke-linejoin="miter" stroke-miterlimit="4" stroke-opacity="1" fill="#E1EEFD" fill-rule="nonzero" fill-opacity="1" transform="matrix(1.17965 0 0 1 294 581)"/></g></g></g><text fill="#000000" fill-opacity="1" font-family="Arial,Arial_MSFontService,sans-serif" font-style="normal" font-variant="normal" font-weight="700" font-stretch="normal" font-size="78" text-anchor="start" direction="ltr" writing-mode="lr-tb" unicode-bidi="normal" text-decoration="none" transform="matrix(1 0 0 1 414.127 855)">project1</text><path d="M0 0 140 179" stroke="#3465A4" stroke-width="6.88583" stroke-linecap="butt" stroke-linejoin="round" stroke-miterlimit="10" stroke-opacity="1" fill="none" fill-rule="evenodd" transform="matrix(-1 0 0 1 454.5 962.5)"/><path d="M559.5 962.5 559.5 1122.5" stroke="#3465A4" stroke-width="6.88583" stroke-linecap="butt" stroke-linejoin="round" stroke-miterlimit="10" stroke-opacity="1" fill="none" fill-rule="evenodd"/><path d="M675.5 962.5 839.5 1122.5" stroke="#3465A4" stroke-width="6.88583" stroke-linecap="butt" stroke-linejoin="round" stroke-miterlimit="10" stroke-opacity="1" fill="none" fill-rule="evenodd"/><text fill="#000000" fill-opacity="1" font-family="Arial,Arial_MSFontService,sans-serif" font-style="normal" font-variant="normal" font-weight="700" font-stretch="normal" font-size="78" text-anchor="start" direction="ltr" writing-mode="lr-tb" unicode-bidi="normal" text-decoration="none" transform="matrix(1 0 0 1 127.7 1316)">data</text><text fill="#000000" fill-opacity="1" font-family="Arial,Arial_MSFontService,sans-serif" font-style="normal" font-variant="normal" font-weight="700" font-stretch="normal" font-size="78" text-anchor="start" direction="ltr" writing-mode="lr-tb" unicode-bidi="normal" text-decoration="none" transform="matrix(1 0 0 1 866.813 1316)">scripts</text><text fill="#000000" fill-opacity="1" font-family="Arial,Arial_MSFontService,sans-serif" font-style="normal" font-variant="normal" font-weight="700" font-stretch="normal" font-size="78" text-anchor="start" direction="ltr" writing-mode="lr-tb" unicode-bidi="normal" text-decoration="none" transform="matrix(1 0 0 1 485.624 1312)">results</text><g><g><g><path d="M378.844 355.458 70.1562 355.458C59.8667 355.458 51.4479 347.04 51.4479 336.75L51.4479 112.25C51.4479 101.96 59.8667 93.5416 70.1562 93.5416L158.085 93.5416C161.827 93.5416 165.569 94.4771 168.375 96.8156L219.823 130.958 378.844 130.958C389.133 130.958 397.552 139.377 397.552 149.667L397.552 336.75C397.552 347.04 389.133 355.458 378.844 355.458Z" stroke="#069A2E" stroke-width="10.9131" stroke-linecap="butt" stroke-linejoin="miter" stroke-miterlimit="4" stroke-opacity="1" fill="#EEFADC" fill-rule="nonzero" fill-opacity="1" transform="matrix(1 0 0 1.02895 2007 1063)"/></g></g></g><g><g><g><path d="M361.969 339.625 67.0312 339.625C57.2 339.625 49.1562 331.581 49.1562 321.75L49.1562 107.25C49.1562 97.4187 57.2 89.375 67.0312 89.375L151.044 89.375C154.619 89.375 158.194 90.2688 160.875 92.5031L210.031 125.125 361.969 125.125C371.8 125.125 379.844 133.169 379.844 143L379.844 321.75C379.844 331.581 371.8 339.625 361.969 339.625Z" stroke="#069A2E" stroke-width="10.427" stroke-linecap="butt" stroke-linejoin="miter" stroke-miterlimit="4" stroke-opacity="1" fill="#EEFADC" fill-rule="nonzero" fill-opacity="1" transform="matrix(1 0 0 1.07692 1625 1055)"/></g></g></g><g><g><g><path d="M361.969 339.625 67.0312 339.625C57.2 339.625 49.1562 331.581 49.1562 321.75L49.1562 107.25C49.1562 97.4187 57.2 89.375 67.0312 89.375L151.044 89.375C154.619 89.375 158.194 90.2688 160.875 92.5031L210.031 125.125 361.969 125.125C371.8 125.125 379.844 133.169 379.844 143L379.844 321.75C379.844 331.581 371.8 339.625 361.969 339.625Z" stroke="#069A2E" stroke-width="10.427" stroke-linecap="butt" stroke-linejoin="miter" stroke-miterlimit="4" stroke-opacity="1" fill="#EEFADC" fill-rule="nonzero" fill-opacity="1" transform="matrix(1 0 0 1.07459 1233 1050)"/></g></g></g><g><g><g><path d="M389.812 365.75 72.1875 365.75C61.6 365.75 52.9375 357.087 52.9375 346.5L52.9375 115.5C52.9375 104.912 61.6 96.25 72.1875 96.25L162.662 96.25C166.512 96.25 170.363 97.2125 173.25 99.6188L226.188 134.75 389.812 134.75C400.4 134.75 409.062 143.412 409.062 154L409.062 346.5C409.062 357.087 400.4 365.75 389.812 365.75Z" stroke="#069A2E" stroke-width="11.2293" stroke-linecap="butt" stroke-linejoin="miter" stroke-miterlimit="4" stroke-opacity="1" fill="#EEFADC" fill-rule="nonzero" fill-opacity="1" transform="matrix(1.17749 0 0 1 1522 596)"/></g></g></g><text fill="#000000" fill-opacity="1" font-family="Arial,Arial_MSFontService,sans-serif" font-style="normal" font-variant="normal" font-weight="700" font-stretch="normal" font-size="78" text-anchor="start" direction="ltr" writing-mode="lr-tb" unicode-bidi="normal" text-decoration="none" transform="matrix(1 0 0 1 1641.76 870)">project2</text><path d="M0 0 140 180" stroke="#069A2E" stroke-width="6.88583" stroke-linecap="butt" stroke-linejoin="round" stroke-miterlimit="10" stroke-opacity="1" fill="none" fill-rule="evenodd" transform="matrix(-1 0 0 1 1682.5 977.5)"/><path d="M1786.5 977.5 1786.5 1137.5" stroke="#069A2E" stroke-width="6.88583" stroke-linecap="butt" stroke-linejoin="round" stroke-miterlimit="10" stroke-opacity="1" fill="none" fill-rule="evenodd"/><path d="M1903.5 977.5 2066.5 1137.5" stroke="#069A2E" stroke-width="6.88583" stroke-linecap="butt" stroke-linejoin="round" stroke-miterlimit="10" stroke-opacity="1" fill="none" fill-rule="evenodd"/><text fill="#000000" fill-opacity="1" font-family="Arial,Arial_MSFontService,sans-serif" font-style="normal" font-variant="normal" font-weight="700" font-stretch="normal" font-size="78" text-anchor="start" direction="ltr" writing-mode="lr-tb" unicode-bidi="normal" text-decoration="none" transform="matrix(1 0 0 1 1355.33 1331)">data</text><text fill="#000000" fill-opacity="1" font-family="Arial,Arial_MSFontService,sans-serif" font-style="normal" font-variant="normal" font-weight="700" font-stretch="normal" font-size="78" text-anchor="start" direction="ltr" writing-mode="lr-tb" unicode-bidi="normal" text-decoration="none" transform="matrix(1 0 0 1 2094.45 1331)">scripts</text><text fill="#000000" fill-opacity="1" font-family="Arial,Arial_MSFontService,sans-serif" font-style="normal" font-variant="normal" font-weight="700" font-stretch="normal" font-size="78" text-anchor="start" direction="ltr" writing-mode="lr-tb" unicode-bidi="normal" text-decoration="none" transform="matrix(1 0 0 1 1713.26 1328)">results</text><g><g><g><path d="M438.75 411.667 81.25 411.667C69.3333 411.667 59.5833 401.917 59.5833 390L59.5833 130C59.5833 118.083 69.3333 108.333 81.25 108.333L183.083 108.333C187.417 108.333 191.75 109.417 195 112.125L254.583 151.667 438.75 151.667C450.667 151.667 460.417 161.417 460.417 173.333L460.417 390C460.417 401.917 450.667 411.667 438.75 411.667Z" stroke="#7F7F7F" stroke-width="12.639" stroke-linecap="butt" stroke-linejoin="miter" stroke-miterlimit="4" stroke-opacity="1" fill="#F4F4F4" fill-rule="nonzero" fill-opacity="1" transform="matrix(1.24808 0 0 1 813 24.0001)"/></g></g></g><text fill="#808080" fill-opacity="1" font-family="Arial,Arial_MSFontService,sans-serif" font-style="italic" font-variant="normal" font-weight="700" font-stretch="normal" font-size="78" text-anchor="start" direction="ltr" writing-mode="lr-tb" unicode-bidi="normal" text-decoration="none" transform="matrix(1 0 0 1 920.045 323)">Documents</text></g></g></svg>