<svg width="3185" height="3130" xmlns="http://www.w3.org/2000/svg" xmlns:xlink="http://www.w3.org/1999/xlink" xml:space="preserve" overflow="hidden"><g transform="translate(-229 73)"><g><g><g><g><path d="M378 354.667 70 354.667C59.7333 354.667 51.3333 346.267 51.3333 336L51.3333 112C51.3333 101.733 59.7333 93.3333 70 93.3333L157.733 93.3333C161.467 93.3333 165.2 94.2666 168 96.6L219.333 130.667 378 130.667C388.267 130.667 396.667 139.067 396.667 149.333L396.667 336C396.667 346.267 388.267 354.667 378 354.667Z" stroke="#3465A4" stroke-width="10.8889" stroke-linecap="butt" stroke-linejoin="miter" stroke-miterlimit="4" stroke-opacity="1" fill="#E1EEFD" fill-rule="nonzero" fill-opacity="1" transform="matrix(1 0 0 1.03125 903 2401)"/></g></g></g><g><g><g><path d="M378.844 355.459 70.1563 355.459C59.8667 355.459 51.4479 347.04 51.4479 336.75L51.4479 112.25C51.4479 101.96 59.8667 93.5417 70.1563 93.5417L158.086 93.5417C161.827 93.5417 165.569 94.4771 168.375 96.8157L219.823 130.958 378.844 130.958C389.134 130.958 397.552 139.377 397.552 149.667L397.552 336.75C397.552 347.04 389.134 355.459 378.844 355.459Z" stroke="#3465A4" stroke-width="10.9132" stroke-linecap="butt" stroke-linejoin="miter" stroke-miterlimit="4" stroke-opacity="1" fill="#E1EEFD" fill-rule="nonzero" fill-opacity="1" transform="matrix(1 0 0 1.02673 1690 2020)"/></g></g></g><g><g><g><path d="M361.969 339.625 67.0312 339.625C57.2 339.625 49.1562 331.581 49.1562 321.75L49.1562 107.25C49.1562 97.4187 57.2 89.375 67.0312 89.375L151.044 89.375C154.619 89.375 158.194 90.2688 160.875 92.5031L210.031 125.125 361.969 125.125C371.8 125.125 379.844 133.169 379.844 143L379.844 321.75C379.844 331.581 371.8 339.625 361.969 339.625Z" stroke="#3465A4" stroke-width="10.4271" stroke-linecap="butt" stroke-linejoin="miter" stroke-miterlimit="4" stroke-opacity="1" fill="#E1EEFD" fill-rule="nonzero" fill-opacity="1" transform="matrix(1 0 0 1.07692 1308 2012)"/></g></g></g><g><g><g><path d="M361.969 339.625 67.0312 339.625C57.2 339.625 49.1562 331.581 49.1562 321.75L49.1562 107.25C49.1562 97.4187 57.2 89.375 67.0312 89.375L151.044 89.375C154.619 89.375 158.194 90.2688 160.875 92.5031L210.031 125.125 361.969 125.125C371.8 125.125 379.844 133.169 379.844 143L379.844 321.75C379.844 331.581 371.8 339.625 361.969 339.625Z" stroke="#3465A4" stroke-width="10.4271" stroke-linecap="butt" stroke-linejoin="miter" stroke-miterlimit="4" stroke-opacity="1" fill="#E1EEFD" fill-rule="nonzero" fill-opacity="1" transform="matrix(1 0 0 1.07692 916 2006)"/></g></g></g><g><g><g><path d="M389.812 365.75 72.1875 365.75C61.6 365.75 52.9375 357.087 52.9375 346.5L52.9375 115.5C52.9375 104.912 61.6 96.25 72.1875 96.25L162.662 96.25C166.512 96.25 170.363 97.2125 173.25 99.6188L226.188 134.75 389.812 134.75C400.4 134.75 409.062 143.412 409.062 154L409.062 346.5C409.062 357.087 400.4 365.75 389.812 365.75Z" stroke="#3465A4" stroke-width="11.2292" stroke-linecap="butt" stroke-linejoin="miter" stroke-miterlimit="4" stroke-opacity="1" fill="#E1EEFD" fill-rule="nonzero" fill-opacity="1" transform="matrix(1.17965 0 0 1 1208 1559)"/></g></g></g><text fill="#000000" fill-opacity="1" font-family="Arial,Arial_MSFontService,sans-serif" font-style="normal" font-variant="normal" font-weight="700" font-stretch="normal" font-size="78" text-anchor="start" direction="ltr" writing-mode="lr-tb" unicode-bidi="normal" text-decoration="none" transform="matrix(1 0 0 1 1035.35 2679)">seqs</text><path d="M1144.5 2792.5 1144.5 2912.5" stroke="#3465A4" stroke-width="6.88583" stroke-linecap="butt" stroke-linejoin="round" stroke-miterlimit="10" stroke-opacity="1" fill="none" fill-rule="evenodd"/><text fill="#000000" fill-opacity="1" font-family="Arial,Arial_MSFontService,sans-serif" font-style="italic" font-variant="normal" font-weight="700" font-stretch="normal" font-size="78" text-anchor="start" direction="ltr" writing-mode="lr-tb" unicode-bidi="normal" text-decoration="none" transform="matrix(1 0 0 1 1028.84 2993)">S1.</text><text fill="#000000" fill-opacity="1" font-family="Arial,Arial_MSFontService,sans-serif" font-style="italic" font-variant="normal" font-weight="700" font-stretch="normal" font-size="78" text-anchor="start" direction="ltr" writing-mode="lr-tb" unicode-bidi="normal" text-decoration="none" transform="matrix(1 0 0 1 1145.81 2993)">fq</text><path d="M3.4375-0.00437355 6.42887 2351.14-0.446123 2351.15-3.4375 0.00437355ZM-13.75 0.017494C-13.7597-7.57642-7.6114-13.7403-0.017494-13.75 7.57642-13.7597 13.7403-7.6114 13.75-0.017494 13.7597 7.57642 7.6114 13.7403 0.017494 13.75-7.57642 13.7597-13.7403 7.6114-13.75 0.017494ZM21.9695 2325.4 3.00012 2358.02-16.0522 2325.45-16.0522 2325.45C-17.0109 2323.81-16.4597 2321.71-14.821 2320.75-13.1824 2319.79-11.0768 2320.34-10.1182 2321.98L5.95847 2349.46 0.0199977 2349.47 16.0267 2321.95C16.9812 2320.3 19.0853 2319.75 20.7264 2320.7 22.3675 2321.66 22.924 2323.76 21.9695 2325.4Z" fill="#333333" fill-rule="nonzero" fill-opacity="1" transform="matrix(-1 0 0 1 2185.5 193.5)"/><text fill="#333333" fill-opacity="1" font-family="Calibri,Calibri_MSFontService,sans-serif" font-style="normal" font-variant="normal" font-weight="700" font-stretch="normal" font-size="83" text-anchor="start" direction="ltr" writing-mode="lr-tb" unicode-bidi="normal" text-decoration="none" transform="matrix(1 0 0 1 2226.67 1119)">/home/</text><text fill="#333333" fill-opacity="1" font-family="Calibri,Calibri_MSFontService,sans-serif" font-style="normal" font-variant="normal" font-weight="700" font-stretch="normal" font-size="83" text-anchor="start" direction="ltr" writing-mode="lr-tb" unicode-bidi="normal" text-decoration="none" transform="matrix(1 0 0 1 2494.84 1119)">jdoe</text><text fill="#333333" fill-opacity="1" font-family="Calibri,Calibri_MSFontService,sans-serif" font-style="normal" font-variant="normal" font-weight="700" font-stretch="normal" font-size="83" text-anchor="start" direction="ltr" writing-mode="lr-tb" unicode-bidi="normal" text-decoration="none" transform="matrix(1 0 0 1 2646.04 1119)">/</text><text fill="#C00000" fill-opacity="1" font-family="Calibri,Calibri_MSFontService,sans-serif" font-style="normal" font-variant="normal" font-weight="700" font-stretch="normal" font-size="83" text-anchor="start" direction="ltr" writing-mode="lr-tb" unicode-bidi="normal" text-decoration="none" transform="matrix(1 0 0 1 2681.49 1119)">OneDrive/</text><text fill="#333333" fill-opacity="1" font-family="Calibri,Calibri_MSFontService,sans-serif" font-style="normal" font-variant="normal" font-weight="700" font-stretch="normal" font-size="83" text-anchor="start" direction="ltr" writing-mode="lr-tb" unicode-bidi="normal" text-decoration="none" transform="matrix(1 0 0 1 3039.93 1119)">project1/</text><text fill="#333333" fill-opacity="1" font-family="Calibri,Calibri_MSFontService,sans-serif" font-style="normal" font-variant="normal" font-weight="700" font-stretch="normal" font-size="83" text-anchor="start" direction="ltr" writing-mode="lr-tb" unicode-bidi="normal" text-decoration="none" transform="matrix(1 0 0 1 2245.32 1219)">data/seqs/S1.fq</text><text fill="#333333" fill-opacity="1" font-family="Calibri,Calibri_MSFontService,sans-serif" font-style="normal" font-variant="normal" font-weight="700" font-stretch="normal" font-size="83" text-anchor="start" direction="ltr" writing-mode="lr-tb" unicode-bidi="normal" text-decoration="none" transform="matrix(1 0 0 1 282.799 2113)">data/seqs/S1.fq</text><path d="M3.4375-0.00296091 4.43167 1154.19-2.44333 1154.19-3.4375 0.00296091ZM-13.75 0.0118436C-13.7565-7.58207-7.60576-13.7435-0.0118436-13.75 7.58207-13.7565 13.7435-7.60576 13.75-0.0118436 13.7565 7.58207 7.60576 13.7435 0.0118436 13.75-7.58207 13.7565-13.7435 7.60576-13.75 0.0118436ZM19.9829 1128.41 1.00005 1161.02-18.0389 1128.44C-18.9969 1126.8-18.4448 1124.7-16.8058 1123.74-15.1667 1122.78-13.0614 1123.33-12.1034 1124.97L3.96192 1152.46-1.97656 1152.46 14.0414 1124.95C14.9966 1123.31 17.101 1122.75 18.7416 1123.71 20.3823 1124.66 20.938 1126.77 19.9829 1128.41Z" fill="#333333" fill-rule="nonzero" fill-opacity="1" transform="matrix(-1 0 0 1 857.5 1823.5)"/><text fill="#000000" fill-opacity="1" font-family="Arial,Arial_MSFontService,sans-serif" font-style="normal" font-variant="normal" font-weight="700" font-stretch="normal" font-size="78" text-anchor="start" direction="ltr" writing-mode="lr-tb" unicode-bidi="normal" text-decoration="none" transform="matrix(1 0 0 1 1324.72 1827)">project1</text><path d="M0 0 141 180" stroke="#3465A4" stroke-width="6.88583" stroke-linecap="butt" stroke-linejoin="round" stroke-miterlimit="10" stroke-opacity="1" fill="none" fill-rule="evenodd" transform="matrix(-1 0 0 1 1365.5 1933.5)"/><path d="M1469.5 1934.5 1469.5 2094.5" stroke="#3465A4" stroke-width="6.88583" stroke-linecap="butt" stroke-linejoin="round" stroke-miterlimit="10" stroke-opacity="1" fill="none" fill-rule="evenodd"/><path d="M1586.5 1933.5 1749.5 2094.5" stroke="#3465A4" stroke-width="6.88583" stroke-linecap="butt" stroke-linejoin="round" stroke-miterlimit="10" stroke-opacity="1" fill="none" fill-rule="evenodd"/><text fill="#000000" fill-opacity="1" font-family="Arial,Arial_MSFontService,sans-serif" font-style="normal" font-variant="normal" font-weight="700" font-stretch="normal" font-size="78" text-anchor="start" direction="ltr" writing-mode="lr-tb" unicode-bidi="normal" text-decoration="none" transform="matrix(1 0 0 1 1038.29 2287)">data</text><text fill="#000000" fill-opacity="1" font-family="Arial,Arial_MSFontService,sans-serif" font-style="normal" font-variant="normal" font-weight="700" font-stretch="normal" font-size="78" text-anchor="start" direction="ltr" writing-mode="lr-tb" unicode-bidi="normal" text-decoration="none" transform="matrix(1 0 0 1 1777.41 2288)">scripts</text><path d="M1144.5 2395.5 1144.5 2515.5" stroke="#3465A4" stroke-width="6.88583" stroke-linecap="butt" stroke-linejoin="round" stroke-miterlimit="10" stroke-opacity="1" fill="none" fill-rule="evenodd"/><text fill="#808080" fill-opacity="1" font-family="Arial,Arial_MSFontService,sans-serif" font-style="italic" font-variant="normal" font-weight="400" font-stretch="normal" font-size="78" text-anchor="start" direction="ltr" writing-mode="lr-tb" unicode-bidi="normal" text-decoration="none" transform="matrix(1 0 0 1 2217.83 1006)">Absolute path:</text><text fill="#808080" fill-opacity="1" font-family="Arial,Arial_MSFontService,sans-serif" font-style="italic" font-variant="normal" font-weight="400" font-stretch="normal" font-size="78" text-anchor="start" direction="ltr" writing-mode="lr-tb" unicode-bidi="normal" text-decoration="none" transform="matrix(1 0 0 1 353.181 2009)">Relative path:</text><text fill="#000000" fill-opacity="1" font-family="Arial,Arial_MSFontService,sans-serif" font-style="normal" font-variant="normal" font-weight="700" font-stretch="normal" font-size="78" text-anchor="start" direction="ltr" writing-mode="lr-tb" unicode-bidi="normal" text-decoration="none" transform="matrix(1 0 0 1 1396.22 2284)">results</text><path d="M1489.5 1360.5 1489.5 1481.5" stroke="#7F7F7F" stroke-width="6.88583" stroke-linecap="butt" stroke-linejoin="round" stroke-miterlimit="10" stroke-opacity="1" fill="none" fill-rule="evenodd"/><g><g><g><path d="M389.812 365.75 72.1875 365.75C61.6 365.75 52.9375 357.087 52.9375 346.5L52.9375 115.5C52.9375 104.912 61.6 96.25 72.1875 96.25L162.662 96.25C166.512 96.25 170.363 97.2125 173.25 99.6188L226.188 134.75 389.812 134.75C400.4 134.75 409.062 143.412 409.062 154L409.062 346.5C409.062 357.087 400.4 365.75 389.812 365.75Z" stroke="#7F7F7F" stroke-width="11.2293" stroke-linecap="butt" stroke-linejoin="miter" stroke-miterlimit="4" stroke-opacity="1" fill="#F2F2F2" fill-rule="nonzero" fill-opacity="1" transform="matrix(1.15801 0 0 1 1232 333)"/></g></g></g><text fill="#808080" fill-opacity="1" font-family="Arial,Arial_MSFontService,sans-serif" font-style="italic" font-variant="normal" font-weight="700" font-stretch="normal" font-size="78" text-anchor="start" direction="ltr" writing-mode="lr-tb" unicode-bidi="normal" text-decoration="none" transform="matrix(1 0 0 1 1380.24 604)">home</text><path d="M1487.5 716.5 1487.5 836.5" stroke="#7F7F7F" stroke-width="6.88583" stroke-linecap="butt" stroke-linejoin="round" stroke-miterlimit="10" stroke-opacity="1" fill="none" fill-rule="evenodd"/><g><g><g><path d="M389.812 365.75 72.1875 365.75C61.6 365.75 52.9375 357.087 52.9375 346.5L52.9375 115.5C52.9375 104.912 61.6 96.25 72.1875 96.25L162.662 96.25C166.512 96.25 170.363 97.2125 173.25 99.6188L226.188 134.75 389.812 134.75C400.4 134.75 409.062 143.412 409.062 154L409.062 346.5C409.062 357.087 400.4 365.75 389.812 365.75Z" stroke="#7F7F7F" stroke-width="11.2293" stroke-linecap="butt" stroke-linejoin="miter" stroke-miterlimit="4" stroke-opacity="1" fill="#F2F2F2" fill-rule="nonzero" fill-opacity="1" transform="matrix(1.15801 0 0 1 1214 735)"/></g></g></g><text fill="#808080" fill-opacity="1" font-family="Arial,Arial_MSFontService,sans-serif" font-style="italic" font-variant="normal" font-weight="700" font-stretch="normal" font-size="78" text-anchor="start" direction="ltr" writing-mode="lr-tb" unicode-bidi="normal" text-decoration="none" transform="matrix(1 0 0 1 1386.86 1006)">jdo</text><text fill="#808080" fill-opacity="1" font-family="Arial,Arial_MSFontService,sans-serif" font-style="italic" font-variant="normal" font-weight="700" font-stretch="normal" font-size="78" text-anchor="start" direction="ltr" writing-mode="lr-tb" unicode-bidi="normal" text-decoration="none" transform="matrix(1 0 0 1 1503.72 1006)">e</text><g><g><g><path d="M389.812 365.75 72.1875 365.75C61.6 365.75 52.9375 357.087 52.9375 346.5L52.9375 115.5C52.9375 104.912 61.6 96.25 72.1875 96.25L162.662 96.25C166.512 96.25 170.363 97.2125 173.25 99.6188L226.188 134.75 389.812 134.75C400.4 134.75 409.062 143.412 409.062 154L409.062 346.5C409.062 357.087 400.4 365.75 389.812 365.75Z" stroke="#7F7F7F" stroke-width="11.2293" stroke-linecap="butt" stroke-linejoin="miter" stroke-miterlimit="4" stroke-opacity="1" fill="#F2F2F2" fill-rule="nonzero" fill-opacity="1" transform="matrix(1.15801 0 0 1 1220 -71.9998)"/></g></g></g><text fill="#808080" fill-opacity="1" font-family="Arial,Arial_MSFontService,sans-serif" font-style="italic" font-variant="normal" font-weight="700" font-stretch="normal" font-size="92" text-anchor="start" direction="ltr" writing-mode="lr-tb" unicode-bidi="normal" text-decoration="none" transform="matrix(1 0 0 1 1486.32 205)">/</text><path d="M1488.5 311.5 1488.5 431.5" stroke="#7F7F7F" stroke-width="6.88583" stroke-linecap="butt" stroke-linejoin="round" stroke-miterlimit="10" stroke-opacity="1" fill="none" fill-rule="evenodd"/><path d="M1484.5 1145.5 1484.5 1266.5" stroke="#7F7F7F" stroke-width="6.88583" stroke-linecap="butt" stroke-linejoin="round" stroke-miterlimit="10" stroke-opacity="1" fill="none" fill-rule="evenodd"/><g><g><g><path d="M389.812 365.75 72.1875 365.75C61.6 365.75 52.9375 357.087 52.9375 346.5L52.9375 115.5C52.9375 104.912 61.6 96.25 72.1875 96.25L162.662 96.25C166.512 96.25 170.363 97.2125 173.25 99.6188L226.188 134.75 389.812 134.75C400.4 134.75 409.062 143.412 409.062 154L409.062 346.5C409.062 357.087 400.4 365.75 389.812 365.75Z" stroke="#7F7F7F" stroke-width="11.2293" stroke-linecap="butt" stroke-linejoin="miter" stroke-miterlimit="4" stroke-opacity="1" fill="#F2F2F2" fill-rule="nonzero" fill-opacity="1" transform="matrix(1.15801 0 0 1 1211 1165)"/></g></g></g><text fill="#C00000" fill-opacity="1" font-family="Arial,Arial_MSFontService,sans-serif" font-style="italic" font-variant="normal" font-weight="700" font-stretch="normal" font-size="78" text-anchor="start" direction="ltr" writing-mode="lr-tb" unicode-bidi="normal" text-decoration="none" transform="matrix(1 0 0 1 1290.29 1436)">OneDrive</text><path d="M1478.5 1549.5 1478.5 1669.5" stroke="#7F7F7F" stroke-width="6.88583" stroke-linecap="butt" stroke-linejoin="round" stroke-miterlimit="10" stroke-opacity="1" fill="none" fill-rule="evenodd"/></g></g></svg>