<svg width="2145" height="1334" xmlns="http://www.w3.org/2000/svg" xmlns:xlink="http://www.w3.org/1999/xlink" xml:space="preserve" overflow="hidden"><g transform="translate(-123 -151)"><g><path d="M384 686.5C356.662 686.5 334.5 708.662 334.5 736L334.5 934C334.5 961.338 356.662 983.5 384 983.5L747 983.5C774.338 983.5 796.5 961.338 796.5 934L796.5 736C796.5 708.662 774.338 686.5 747 686.5Z" stroke="#3465A4" stroke-width="6.88583" stroke-linecap="butt" stroke-linejoin="round" stroke-miterlimit="10" stroke-opacity="1" fill="#E1EEFD" fill-rule="evenodd" fill-opacity="1"/><text fill="#000000" fill-opacity="1" font-family="Arial,Arial_MSFontService,sans-serif" font-style="normal" font-variant="normal" font-weight="700" font-stretch="normal" font-size="78" text-anchor="start" direction="ltr" writing-mode="lr-tb" unicode-bidi="normal" text-decoration="none" transform="matrix(1 0 0 1 412.24 861)">project1</text><path d="M1501 686.5C1473.66 686.5 1451.5 708.662 1451.5 736L1451.5 934C1451.5 961.338 1473.66 983.5 1501 983.5L1864 983.5C1891.34 983.5 1913.5 961.338 1913.5 934L1913.5 736C1913.5 708.662 1891.34 686.5 1864 686.5Z" stroke="#069A2E" stroke-width="6.88583" stroke-linecap="butt" stroke-linejoin="round" stroke-miterlimit="10" stroke-opacity="1" fill="#EEFADC" fill-rule="evenodd" fill-opacity="1"/><text fill="#000000" fill-opacity="1" font-family="Arial,Arial_MSFontService,sans-serif" font-style="normal" font-variant="normal" font-weight="700" font-stretch="normal" font-size="78" text-anchor="start" direction="ltr" writing-mode="lr-tb" unicode-bidi="normal" text-decoration="none" transform="matrix(1 0 0 1 1529.69 861)">project2</text><path d="M955 158.5C927.662 158.5 905.5 180.662 905.5 208L905.5 406C905.5 433.338 927.662 455.5 955 455.5L1318 455.5C1345.34 455.5 1367.5 433.338 1367.5 406L1367.5 208C1367.5 180.662 1345.34 158.5 1318 158.5Z" stroke="#808080" stroke-width="6.88583" stroke-linecap="butt" stroke-linejoin="round" stroke-miterlimit="10" stroke-dasharray="13.5651 8.745" stroke-opacity="1" fill="#F4F4F4" fill-rule="evenodd" fill-opacity="1"/><text fill="#808080" fill-opacity="1" font-family="Arial,Arial_MSFontService,sans-serif" font-style="italic" font-variant="normal" font-weight="700" font-stretch="normal" font-size="78" text-anchor="start" direction="ltr" writing-mode="lr-tb" unicode-bidi="normal" text-decoration="none" transform="matrix(1 0 0 1 1030.91 333)">Home</text><path d="M1338.5 455.5 1701.5 686.5" stroke="#808080" stroke-width="6.88583" stroke-linecap="butt" stroke-linejoin="round" stroke-miterlimit="10" stroke-dasharray="13.5651 8.745" stroke-opacity="1" fill="none" fill-rule="evenodd"/><path d="M0 0 171 244" stroke="#3465A4" stroke-width="6.88583" stroke-linecap="butt" stroke-linejoin="round" stroke-miterlimit="10" stroke-opacity="1" fill="none" fill-rule="evenodd" transform="matrix(-1 0 0 1 472.5 983.5)"/><path d="M598.5 983.5 598.5 1227.5" stroke="#3465A4" stroke-width="6.88583" stroke-linecap="butt" stroke-linejoin="round" stroke-miterlimit="10" stroke-opacity="1" fill="none" fill-rule="evenodd"/><path d="M164.833 1227.5C144.767 1227.5 128.5 1243.77 128.5 1263.83L128.5 1409.17C128.5 1429.23 144.767 1445.5 164.833 1445.5L397.167 1445.5C417.233 1445.5 433.5 1429.23 433.5 1409.17L433.5 1263.83C433.5 1243.77 417.233 1227.5 397.167 1227.5Z" stroke="#3465A4" stroke-width="6.88583" stroke-linecap="butt" stroke-linejoin="round" stroke-miterlimit="10" stroke-opacity="1" fill="#E1EEFD" fill-rule="evenodd" fill-opacity="1"/><path d="M508.833 1227.5C488.767 1227.5 472.5 1243.77 472.5 1263.83L472.5 1409.17C472.5 1429.23 488.767 1445.5 508.833 1445.5L741.167 1445.5C761.233 1445.5 777.5 1429.23 777.5 1409.17L777.5 1263.83C777.5 1243.77 761.233 1227.5 741.167 1227.5Z" stroke="#3465A4" stroke-width="6.88583" stroke-linecap="butt" stroke-linejoin="round" stroke-miterlimit="10" stroke-opacity="1" fill="#E1EEFD" fill-rule="evenodd" fill-opacity="1"/><path d="M853.667 1228.5C833.692 1228.5 817.5 1244.69 817.5 1264.67L817.5 1409.33C817.5 1429.31 833.692 1445.5 853.667 1445.5L1086.33 1445.5C1106.31 1445.5 1122.5 1429.31 1122.5 1409.33L1122.5 1264.67C1122.5 1244.69 1106.31 1228.5 1086.33 1228.5Z" stroke="#3465A4" stroke-width="6.88583" stroke-linecap="butt" stroke-linejoin="round" stroke-miterlimit="10" stroke-opacity="1" fill="#E1EEFD" fill-rule="evenodd" fill-opacity="1"/><path d="M717.5 983.5 888.5 1227.5" stroke="#3465A4" stroke-width="6.88583" stroke-linecap="butt" stroke-linejoin="round" stroke-miterlimit="10" stroke-opacity="1" fill="none" fill-rule="evenodd"/><path d="M0 0 172 244" stroke="#069A2E" stroke-width="6.88583" stroke-linecap="butt" stroke-linejoin="round" stroke-miterlimit="10" stroke-opacity="1" fill="none" fill-rule="evenodd" transform="matrix(-1 0 0 1 1588.5 983.5)"/><path d="M1713.5 983.5 1713.5 1227.5" stroke="#069A2E" stroke-width="6.88583" stroke-linecap="butt" stroke-linejoin="round" stroke-miterlimit="10" stroke-opacity="1" fill="none" fill-rule="evenodd"/><path d="M1279.83 1227.5C1259.77 1227.5 1243.5 1243.77 1243.5 1263.83L1243.5 1409.17C1243.5 1429.23 1259.77 1445.5 1279.83 1445.5L1512.17 1445.5C1532.23 1445.5 1548.5 1429.23 1548.5 1409.17L1548.5 1263.83C1548.5 1243.77 1532.23 1227.5 1512.17 1227.5Z" stroke="#069A2E" stroke-width="6.88583" stroke-linecap="butt" stroke-linejoin="round" stroke-miterlimit="10" stroke-opacity="1" fill="#EEFADC" fill-rule="evenodd" fill-opacity="1"/><text fill="#000000" fill-opacity="1" font-family="Arial,Arial_MSFontService,sans-serif" font-style="normal" font-variant="normal" font-weight="700" font-stretch="normal" font-size="78" text-anchor="start" direction="ltr" writing-mode="lr-tb" unicode-bidi="normal" text-decoration="none" transform="matrix(1 0 0 1 1301.81 1363)">data</text><path d="M1624.83 1227.5C1604.77 1227.5 1588.5 1243.77 1588.5 1263.83L1588.5 1409.17C1588.5 1429.23 1604.77 1445.5 1624.83 1445.5L1857.17 1445.5C1877.23 1445.5 1893.5 1429.23 1893.5 1409.17L1893.5 1263.83C1893.5 1243.77 1877.23 1227.5 1857.17 1227.5Z" stroke="#069A2E" stroke-width="6.88583" stroke-linecap="butt" stroke-linejoin="round" stroke-miterlimit="10" stroke-opacity="1" fill="#EEFADC" fill-rule="evenodd" fill-opacity="1"/><path d="M1968.83 1228.5C1948.77 1228.5 1932.5 1244.77 1932.5 1264.83L1932.5 1410.17C1932.5 1430.23 1948.77 1446.5 1968.83 1446.5L2201.17 1446.5C2221.23 1446.5 2237.5 1430.23 2237.5 1410.17L2237.5 1264.83C2237.5 1244.77 2221.23 1228.5 2201.17 1228.5Z" stroke="#069A2E" stroke-width="6.88583" stroke-linecap="butt" stroke-linejoin="round" stroke-miterlimit="10" stroke-opacity="1" fill="#EEFADC" fill-rule="evenodd" fill-opacity="1"/><path d="M1832.5 983.5 2004.5 1227.5" stroke="#069A2E" stroke-width="6.88583" stroke-linecap="butt" stroke-linejoin="round" stroke-miterlimit="10" stroke-opacity="1" fill="none" fill-rule="evenodd"/><path d="M0 0 363 231" stroke="#808080" stroke-width="6.88583" stroke-linecap="butt" stroke-linejoin="round" stroke-miterlimit="10" stroke-dasharray="13.5651 8.745" stroke-opacity="1" fill="none" fill-rule="evenodd" transform="matrix(-1 0 0 1 934.5 455.5)"/><text fill="#000000" fill-opacity="1" font-family="Arial,Arial_MSFontService,sans-serif" font-style="normal" font-variant="normal" font-weight="700" font-stretch="normal" font-size="78" text-anchor="start" direction="ltr" writing-mode="lr-tb" unicode-bidi="normal" text-decoration="none" transform="matrix(1 0 0 1 193.193 1369)">data</text><text fill="#000000" fill-opacity="1" font-family="Arial,Arial_MSFontService,sans-serif" font-style="normal" font-variant="normal" font-weight="700" font-stretch="normal" font-size="78" text-anchor="start" direction="ltr" writing-mode="lr-tb" unicode-bidi="normal" text-decoration="none" transform="matrix(1 0 0 1 852.803 1363)">scripts</text><text fill="#000000" fill-opacity="1" font-family="Arial,Arial_MSFontService,sans-serif" font-style="normal" font-variant="normal" font-weight="700" font-stretch="normal" font-size="78" text-anchor="start" direction="ltr" writing-mode="lr-tb" unicode-bidi="normal" text-decoration="none" transform="matrix(1 0 0 1 1619.99 1363)">results</text><text fill="#000000" fill-opacity="1" font-family="Arial,Arial_MSFontService,sans-serif" font-style="normal" font-variant="normal" font-weight="700" font-stretch="normal" font-size="78" text-anchor="start" direction="ltr" writing-mode="lr-tb" unicode-bidi="normal" text-decoration="none" transform="matrix(1 0 0 1 1967.44 1363)">scripts</text><text fill="#000000" fill-opacity="1" font-family="Arial,Arial_MSFontService,sans-serif" font-style="normal" font-variant="normal" font-weight="700" font-stretch="normal" font-size="78" text-anchor="start" direction="ltr" writing-mode="lr-tb" unicode-bidi="normal" text-decoration="none" transform="matrix(1 0 0 1 495.13 1363)">results</text></g></g></svg>